HIERARCHY
ROOT Hips
{
	OFFSET 0.0000 0.0000 0.0000
	CHANNELS 6 Xposition Yposition Zposition Zrotation Xrotation Yrotation
	JOINT Ab
	{
		OFFSET -0.0000 8.1305 -0.0000
		CHANNELS 3 Zrotation Xrotation Yrotation
		JOINT Chest
		{
			OFFSET -0.0000 26.2902 -0.0000
			CHANNELS 3 Zrotation Xrotation Yrotation
			JOINT Neck
			{
				OFFSET -0.0000 26.2902 0.0000
				CHANNELS 3 Zrotation Xrotation Yrotation
				JOINT Head
				{
					OFFSET -0.0000 10.8167 0.0000
					CHANNELS 3 Zrotation Xrotation Yrotation
					End Site
					{
						OFFSET -0.0000 16.7167 0.0000
					}
				}
			}
			JOINT LeftCollar
			{
				OFFSET -0.0000 26.2902 0.0000
				CHANNELS 3 Zrotation Xrotation Yrotation
				JOINT LeftShoulder
				{
					OFFSET 19.6667 -0.0000 0.0000
					CHANNELS 3 Zrotation Xrotation Yrotation
					JOINT LeftElbow
					{
						OFFSET 27.2190 0.0000 0.0000
						CHANNELS 3 Zrotation Xrotation Yrotation
						JOINT LeftWrist
						{
							OFFSET 30.7431 0.0000 0.0000
							CHANNELS 3 Zrotation Xrotation Yrotation
							End Site
							{
								OFFSET 0.0000 -14.7500 0.0000
							}
						}
					}
				}
			}
			JOINT RightCollar
			{
				OFFSET -0.0000 26.2902 0.0000
				CHANNELS 3 Zrotation Xrotation Yrotation
				JOINT RightShoulder
				{
					OFFSET -19.6667 0.0000 0.0000
					CHANNELS 3 Zrotation Xrotation Yrotation
					JOINT RightElbow
					{
						OFFSET -27.2190 0.0000 0.0000
						CHANNELS 3 Zrotation Xrotation Yrotation
						JOINT RightWrist
						{
							OFFSET -30.7431 0.0000 0.0000
							CHANNELS 3 Zrotation Xrotation Yrotation
							End Site
							{
								OFFSET -0.0000 -14.7500 0.0000
							}
						}
					}
				}
			}
		}
	}
	JOINT LeftHip
	{
		OFFSET 11.8000 0.0000 0.0000
		CHANNELS 3 Zrotation Xrotation Yrotation
		JOINT LeftKnee
		{
			OFFSET -0.0000 -39.7832 0.0000
			CHANNELS 3 Zrotation Xrotation Yrotation
			JOINT LeftAnkle
			{
				OFFSET -0.0000 -41.7317 0.0000
				CHANNELS 3 Zrotation Xrotation Yrotation
				End Site
				{
					OFFSET -0.0000 -4.9167 16.7167
				}
			}
		}
	}
	JOINT RightHip
	{
		OFFSET -11.8000 0.0000 0.0000
		CHANNELS 3 Zrotation Xrotation Yrotation
		JOINT RightKnee
		{
			OFFSET -0.0000 -39.7832 0.0000
			CHANNELS 3 Zrotation Xrotation Yrotation
			JOINT RightAnkle
			{
				OFFSET -0.0000 -41.7317 0.0000
				CHANNELS 3 Zrotation Xrotation Yrotation
				End Site
				{
					OFFSET -0.0000 -4.9167 16.7167
				}
			}
		}
	}
}
MOTION
Frames: 10
Frame Time: 0.010000
-0.1770 84.4657 57.9634 356.1534 350.1822 174.1310 356.7703 349.1762 3.6398 1.3393 9.8565 3.8209 352.7127 341.9247 359.7843 358.3836 7.7562 1.0457 334.3568 357.2978 11.8869 318.6163 35.0747 9.9000 356.0186 0.9549 328.5953 82.0922 358.9533 326.5390 28.4379 355.9385 343.9227 16.4444 49.5279 31.6819 330.2679 339.1960 72.0923 259.5718 353.6850 355.2347 350.5084 322.6047 356.7456 354.1520 30.1228 1.1945 2.8784 353.0133 24.1837 359.0047 17.0964 1.2578 4.8564 26.9285 17.5227 9.7831 337.7719 333.9999 
-0.1235 84.4910 56.2495 355.5165 350.3666 174.6019 356.0638 349.2101 3.4285 0.9505 10.0409 3.7138 352.8098 341.6674 359.7648 358.4132 7.5719 1.0243 334.2577 357.2418 12.0496 318.4849 35.8964 8.6138 356.9718 0.6364 328.4076 82.0766 358.9863 327.8782 28.8448 355.7854 343.8180 18.3782 49.1322 29.2424 331.8747 340.5856 71.2431 260.5511 353.5415 357.1223 349.5622 323.0552 355.9874 353.7289 31.4456 1.9769 3.5328 353.0470 24.3651 357.9284 15.6554 0.7864 5.6077 31.0091 16.7315 11.5479 340.7025 334.5436 
-0.0500 84.5205 54.5596 355.0859 350.7230 175.1292 355.7253 349.4425 3.1840 0.3002 10.2716 3.5449 353.2773 341.3981 359.8158 358.0263 7.5018 1.0370 334.4624 357.2449 11.9930 318.1110 36.8857 7.3593 358.2447 0.2042 328.1211 81.6429 358.9167 328.6028 29.1809 355.7504 343.9641 21.2328 48.6801 25.8643 333.4001 341.9547 70.3317 261.0225 353.5977 358.9511 348.9134 324.1303 355.8929 353.4366 32.2302 2.0846 5.0147 352.7719 24.4055 356.9903 14.1853 0.1067 6.4098 35.2291 15.9572 13.3787 343.8691 334.8608 
-0.0193 84.5907 52.8390 354.7653 351.2006 175.5156 355.6968 349.8389 3.0529 359.4764 10.3053 3.4779 353.5033 341.5040 359.8636 357.9653 7.4129 1.0539 334.7507 357.3346 11.9748 317.5507 37.9561 6.3198 359.4410 359.8400 327.6645 82.0209 359.0045 330.2367 29.4339 355.7752 344.3322 24.3647 48.2244 22.1439 334.8486 343.3619 68.9205 261.2134 353.2998 0.4208 348.3194 325.7032 356.3734 353.7711 32.4921 1.6196 5.8846 352.2455 23.9576 356.0307 12.7515 0.2130 7.7913 39.3649 13.8819 12.2727 349.0198 336.1667 
0.0666 84.6220 51.1227 354.5475 351.7833 175.6476 355.6590 350.3926 3.0507 358.8397 10.1448 3.5186 353.6737 341.8409 359.9373 357.9545 7.3589 1.0831 335.0110 357.3149 12.3680 317.3913 39.7956 4.6410 0.8705 359.3730 327.3684 82.6613 358.6298 332.2121 29.4388 355.8609 344.5653 27.1008 48.5616 19.2560 335.5983 344.2046 66.4478 262.5826 353.8230 2.5846 348.1494 327.6319 357.7577 354.3967 32.3392 0.4443 6.6474 351.7412 23.5452 355.1430 11.1448 359.7446 8.7963 43.9634 13.1788 9.6214 352.7351 335.9852 
0.1501 84.6633 49.4467 354.5254 352.3346 175.8230 355.8733 351.0211 3.0052 358.1239 9.8747 3.4892 354.1852 342.1336 0.0231 357.6548 7.5142 1.0860 335.4493 357.3381 12.4159 316.7560 41.3309 3.5538 2.5076 358.8227 326.7119 82.7535 358.1974 333.8986 29.4362 355.9160 344.5792 29.8578 48.7095 16.6048 336.2088 345.1834 63.7420 263.0388 354.9582 4.3289 347.9787 329.3582 0.0861 355.9802 32.5650 358.0535 6.8137 350.7264 23.3876 354.2811 9.6854 0.3644 11.2090 47.5960 12.5042 8.2220 355.7701 334.6256 
0.2643 84.7129 47.7964 354.5132 352.8430 175.9219 355.8344 351.7175 3.0088 357.8402 9.3437 3.4875 354.1180 342.8162 0.0068 358.1949 7.3177 1.0115 335.6167 357.3255 12.5332 316.4953 42.6278 2.4740 3.5221 358.5679 325.7941 84.7675 357.8029 335.5466 29.1296 355.9715 344.5183 32.7302 49.0511 14.1343 336.6051 346.1332 60.5159 263.6271 355.2497 5.0298 347.9411 331.1473 1.4109 356.7895 32.4076 356.7951 7.1861 350.0020 23.2458 353.7583 8.0497 0.3527 12.7712 51.4053 11.5915 6.9236 355.7336 334.0581 
0.3374 84.8369 46.1774 354.4401 353.1998 176.0786 355.8251 352.1909 2.8968 357.5094 9.0097 3.3758 354.4298 343.1089 0.0352 358.1249 7.5152 0.9802 335.7603 357.2875 12.8309 316.9446 44.1062 0.7333 4.4733 358.2671 324.3933 84.7881 358.1854 336.5348 28.8573 356.0114 344.3972 35.3262 48.9461 11.9771 337.2481 347.3556 57.3379 264.4721 356.3756 5.7974 347.7617 332.8491 1.4023 356.8521 31.9682 356.9913 7.1755 349.3457 23.1655 353.1690 6.0555 0.7578 15.3282 54.7858 9.2756 5.2889 354.2430 333.0499 
0.3930 85.0223 44.6314 354.2560 353.2121 176.1705 355.6693 352.2210 2.7353 357.3523 8.8585 3.2313 354.5919 343.2944 0.1101 358.1790 7.6836 1.0286 336.0617 357.2560 13.3409 317.1395 45.7709 358.7729 5.7494 357.7467 323.0548 85.5545 358.1898 338.5384 28.5122 356.0571 344.4567 37.6533 48.7061 10.0326 338.0258 348.6160 54.0890 265.4562 357.6865 6.7513 347.5050 334.2023 0.9149 356.6700 31.4518 357.3893 7.7173 349.0559 23.2944 352.5746 3.6076 0.7686 17.5125 57.7892 7.8540 3.1087 352.3205 330.8682 
0.4931 85.2401 43.1189 354.3118 353.3172 176.6197 355.5766 352.4744 2.4020 357.4512 8.6359 2.8785 354.8585 343.3130 0.1620 357.9123 8.0554 1.0577 336.0107 357.1623 13.6600 318.0554 46.9412 356.7901 6.4558 357.4966 321.2229 86.3607 358.2701 340.3440 28.3795 356.0437 344.3545 39.2307 48.0787 8.4796 339.2109 350.0802 50.6157 265.6594 356.8517 8.0385 347.4665 335.6826 0.0215 356.3112 30.8926 357.9862 7.8394 348.6550 23.3238 352.2826 1.2573 359.5409 18.0328 60.6092 7.9668 1.2953 351.1466 329.8531 
